<svg xmlns="http://www.w3.org/2000/svg" xmlns:xlink="http://www.w3.org/1999/xlink" width="1366" zoomAndPan="magnify" viewBox="0 0 1024.5 230.25" height="307" preserveAspectRatio="xMidYMid meet" version="1.0"><metadata><ContainsAiGeneratedContent>Yes</ContainsAiGeneratedContent></metadata><defs><clipPath id="cb29b80aba"><path d="M 416 102 L 593 102 L 593 229.503906 L 416 229.503906 Z M 416 102 " clip-rule="nonzero"/></clipPath><clipPath id="2a64704df8"><path d="M 384.957031 1 L 623.429688 1 L 623.429688 107 L 384.957031 107 Z M 384.957031 1 " clip-rule="nonzero"/></clipPath></defs><g clip-path="url(#cb29b80aba)"><path fill="#1ab92a" d="M 581.554688 213.027344 C 581.554688 216.082031 579.070312 218.515625 576.0625 218.515625 L 537.480469 218.515625 C 534.421875 218.515625 531.988281 216.035156 531.988281 213.027344 L 531.988281 155.816406 C 531.988281 146.695312 524.585938 139.292969 515.464844 139.292969 L 493.402344 139.292969 C 484.28125 139.292969 476.878906 146.695312 476.878906 155.816406 L 476.878906 213.027344 C 476.878906 216.082031 474.398438 218.515625 471.390625 218.515625 L 432.660156 218.515625 C 429.605469 218.515625 427.167969 216.035156 427.167969 213.027344 L 427.167969 102.761719 L 416.136719 102.761719 L 416.136719 213.027344 C 416.136719 222.144531 423.539062 229.546875 432.660156 229.546875 L 471.246094 229.546875 C 480.367188 229.546875 487.769531 222.144531 487.769531 213.027344 L 487.769531 155.816406 C 487.769531 152.761719 490.25 150.324219 493.261719 150.324219 L 515.320312 150.324219 C 518.378906 150.324219 520.8125 152.808594 520.8125 155.816406 L 520.8125 213.027344 C 520.8125 222.144531 528.214844 229.546875 537.335938 229.546875 L 575.921875 229.546875 C 585.042969 229.546875 592.441406 222.144531 592.441406 213.027344 L 592.441406 102.761719 L 581.410156 102.761719 Z M 581.554688 213.027344 " fill-opacity="1" fill-rule="nonzero"/></g><g clip-path="url(#2a64704df8)"><path fill="#1ab92a" d="M 515.082031 5.441406 C 508.828125 0.09375 499.800781 0.09375 493.546875 5.441406 L 384.957031 98.5625 L 392.117188 106.917969 L 500.757812 13.800781 C 502.859375 12.03125 505.867188 12.03125 507.921875 13.800781 L 616.558594 106.917969 L 623.722656 98.5625 Z M 515.082031 5.441406 " fill-opacity="1" fill-rule="nonzero"/></g></svg>